<svg xmlns="http://www.w3.org/2000/svg" viewBox="0 0 640 360" font-family="Segoe UI, system-ui, sans-serif">
<rect width="640" height="360" fill="#f7f8fb"/>
<rect x="24" y="20" width="592" height="320" rx="12" fill="#ffffff" stroke="#dfe3ec"/>
<rect x="24" y="20" width="592" height="34" rx="12" fill="#eef1f7"/>
<rect x="24" y="42" width="592" height="12" fill="#eef1f7"/>
<circle cx="44" cy="37" r="5" fill="#ff5f57"/><circle cx="62" cy="37" r="5" fill="#febc2e"/><circle cx="80" cy="37" r="5" fill="#28c840"/>
<text x="100" y="42" font-size="14" font-weight="600" fill="#26314a">Pessoal — Vencimentos</text>
<rect x="24" y="54" width="592" height="4" fill="#f5a623" opacity="0.9"/>
<rect x="44" y="72" width="200" height="182" rx="8" fill="#fff" stroke="#dfe3ec"/><text x="58" y="92" font-size="11" fill="#8a94ad">Funcionário</text>
     <rect x="58" y="102" width="172" height="14" rx="4" fill="#ffe9c9"/><rect x="58" y="128" width="172" height="14" rx="4" fill="#f0f2f8"/><rect x="58" y="154" width="172" height="14" rx="4" fill="#f0f2f8"/><rect x="58" y="180" width="172" height="14" rx="4" fill="#f0f2f8"/><rect x="58" y="206" width="172" height="14" rx="4" fill="#f0f2f8"/><rect x="262" y="72" width="334" height="182" rx="8" fill="#fff" stroke="#dfe3ec"/>
     <text x="280" y="96" font-size="11" fill="#8a94ad">Nome</text><rect x="280" y="102" width="140" height="22" rx="5" fill="#fff" stroke="#dfe3ec"/><text x="288" y="117" font-size="11.5" fill="#26314a">Ana Silva</text><text x="440" y="96" font-size="11" fill="#8a94ad">C</text><rect x="440" y="102" width="130" height="22" rx="5" fill="#fff" stroke="#dfe3ec"/><text x="448" y="117" font-size="11.5" fill="#26314a">a</text><text x="280" y="130" font-size="11" fill="#8a94ad">Venc. base</text><rect x="280" y="136" width="140" height="22" rx="5" fill="#fff" stroke="#dfe3ec"/><text x="288" y="151" font-size="11.5" fill="#26314a">1.400,00</text><text x="280" y="164" font-size="11" fill="#8a94ad">Subsídio</text><rect x="280" y="170" width="140" height="22" rx="5" fill="#fff" stroke="#dfe3ec"/><text x="288" y="185" font-size="11.5" fill="#26314a">1.16</text><text x="280" y="198" font-size="11" fill="#8a94ad">Descontos</text><rect x="280" y="204" width="140" height="22" rx="5" fill="#fff" stroke="#dfe3ec"/><text x="288" y="219" font-size="11.5" fill="#26314a">SS 11%</text><text x="280" y="232" font-size="11" fill="#8a94ad">Líquido</text><rect x="280" y="238" width="140" height="22" rx="5" fill="#fff" stroke="#dfe3ec"/><text x="288" y="253" font-size="11.5" fill="#26314a">1.102,00</text><rect x="280" y="226" width="128" height="26" rx="6" fill="#f5a623" stroke="#f5a623"/><text x="290" y="243" font-size="12" font-weight="600" fill="#171103">Gravar</text>
</svg>