<svg xmlns="http://www.w3.org/2000/svg" viewBox="0 0 640 360" font-family="Segoe UI, system-ui, sans-serif">
<rect width="640" height="360" fill="#f7f8fb"/>
<rect x="24" y="20" width="592" height="320" rx="12" fill="#ffffff" stroke="#dfe3ec"/>
<rect x="24" y="20" width="592" height="34" rx="12" fill="#eef1f7"/>
<rect x="24" y="42" width="592" height="12" fill="#eef1f7"/>
<circle cx="44" cy="37" r="5" fill="#ff5f57"/><circle cx="62" cy="37" r="5" fill="#febc2e"/><circle cx="80" cy="37" r="5" fill="#28c840"/>
<text x="100" y="42" font-size="14" font-weight="600" fill="#26314a">POS &amp; Retalho — Terminal</text>
<rect x="24" y="54" width="592" height="4" fill="#f5a623" opacity="0.9"/>
<rect x="44" y="74" width="88" height="66" rx="8" fill="#fff" stroke="#dfe3ec"/><rect x="52" y="82" width="72" height="30" rx="4" fill="#eef1f7"/><rect x="52" y="118" width="40" height="9" rx="4" fill="#f5a623" opacity="0.7"/><rect x="140" y="74" width="88" height="66" rx="8" fill="#fff" stroke="#dfe3ec"/><rect x="148" y="82" width="72" height="30" rx="4" fill="#eef1f7"/><rect x="148" y="118" width="40" height="9" rx="4" fill="#f5a623" opacity="0.7"/><rect x="236" y="74" width="88" height="66" rx="8" fill="#fff" stroke="#dfe3ec"/><rect x="244" y="82" width="72" height="30" rx="4" fill="#eef1f7"/><rect x="244" y="118" width="40" height="9" rx="4" fill="#f5a623" opacity="0.7"/><rect x="332" y="74" width="88" height="66" rx="8" fill="#fff" stroke="#dfe3ec"/><rect x="340" y="82" width="72" height="30" rx="4" fill="#eef1f7"/><rect x="340" y="118" width="40" height="9" rx="4" fill="#f5a623" opacity="0.7"/><rect x="44" y="148" width="88" height="66" rx="8" fill="#fff" stroke="#dfe3ec"/><rect x="52" y="156" width="72" height="30" rx="4" fill="#eef1f7"/><rect x="52" y="192" width="40" height="9" rx="4" fill="#f5a623" opacity="0.7"/><rect x="140" y="148" width="88" height="66" rx="8" fill="#fff" stroke="#dfe3ec"/><rect x="148" y="156" width="72" height="30" rx="4" fill="#eef1f7"/><rect x="148" y="192" width="40" height="9" rx="4" fill="#f5a623" opacity="0.7"/><rect x="332" y="148" width="88" height="66" rx="8" fill="#fff" stroke="#dfe3ec"/><rect x="340" y="156" width="72" height="30" rx="4" fill="#eef1f7"/><rect x="340" y="192" width="40" height="9" rx="4" fill="#f5a623" opacity="0.7"/><rect x="44" y="222" width="88" height="66" rx="8" fill="#fff" stroke="#dfe3ec"/><rect x="52" y="230" width="72" height="30" rx="4" fill="#eef1f7"/><rect x="52" y="266" width="40" height="9" rx="4" fill="#f5a623" opacity="0.7"/><rect x="440" y="74" width="156" height="180" rx="8" fill="#fff" stroke="#dfe3ec"/><text x="454" y="94" font-size="11" fill="#8a94ad">Talão / FS</text>
     <rect x="454" y="104" width="128" height="10" rx="4" fill="#f0f2f8"/><rect x="454" y="124" width="128" height="10" rx="4" fill="#f0f2f8"/><rect x="454" y="144" width="128" height="10" rx="4" fill="#f0f2f8"/><rect x="454" y="164" width="128" height="10" rx="4" fill="#f0f2f8"/><text x="454" y="206" font-size="15" font-weight="700" fill="#f5a623">€ 48,90</text><rect x="454" y="220" width="200" height="26" rx="6" fill="#f5a623" stroke="#f5a623"/><text x="464" y="237" font-size="12" font-weight="600" fill="#171103">Fechar dia</text>
</svg>